<svg xmlns="http://www.w3.org/2000/svg" viewBox="0 0 128 128"><g><path d="M108 0a4 4 0 0 0-4 4v120a4 4 0 0 0 4 4h16a4 4 0 0 0 4-4V4a4 4 0 0 0-4-4h-16Zm15 7a2 2 0 1 0 0-4 2 2 0 0 0 0 4Zm2 3a2 2 0 1 1-4 0 2 2 0 0 1 4 0Zm0 4h-18v3h18v-3Zm-18 4h18v3h-18v-3Zm19 106h-3v2h3v-2Zm-7 0h3v2h-3v-2Zm-1 0h-3v2h3v-2Zm-10 1a1 1 0 1 1-2 0 1 1 0 0 1 2 0Zm2 1a1 1 0 1 0 0-2 1 1 0 0 0 0 2Zm-2-103h6v3h-6v-3Zm16 0h-6v3h6v-3Zm-16 5h6v3h-6v-3Zm16 0h-6v3h6v-3ZM4 0a4 4 0 0 0-4 4v120a4 4 0 0 0 4 4h16a4 4 0 0 0 4-4V4a4 4 0 0 0-4-4H4Zm15 7a2 2 0 1 0 0-4 2 2 0 0 0 0 4Zm2 3a2 2 0 1 1-4 0 2 2 0 0 1 4 0Zm0 4H3v3h18v-3ZM3 18h18v3H3v-3Zm19 106h-3v2h3v-2Zm-7 0h3v2h-3v-2Zm-1 0h-3v2h3v-2Zm-10 1a1 1 0 1 1-2 0 1 1 0 0 1 2 0Zm2 1a1 1 0 1 0 0-2 1 1 0 0 0 0 2ZM4 23h6v3H4v-3Zm16 0h-6v3h6v-3ZM4 28h6v3H4v-3Zm16 0h-6v3h6v-3Z"/><path d="M26.194 7.71a4 4 0 0 0-1.739 5.383L82.192 125.92a4 4 0 0 0 5.383 1.738l14.244-7.288a4 4 0 0 0 1.738-5.383L45.82 2.16A4 4 0 0 0 40.437.42L26.194 7.71ZM101.804 116l-2.67 1.367.911 1.78 2.67-1.367-.911-1.78Zm-6.231 3.189 2.67-1.367.912 1.781-2.671 1.366-.911-1.78Zm-.89.455-2.671 1.367.911 1.78 2.67-1.366-.91-1.781Zm-8.447 5.446a1 1 0 1 1-1.781.911 1 1 0 0 1 1.781-.911Zm2.236-.021a1 1 0 1 0-.91-1.78 1 1 0 0 0 .91 1.78ZM43.935 4.581a2 2 0 1 1-3.56 1.822 2 2 0 0 1 3.56-1.822Zm1.408 7.142a2 2 0 1 0-1.822-3.56 2 2 0 0 0 1.822 3.56Zm-13.332 9.07 16.024-8.2 1.366 2.67-16.023 8.2-1.367-2.67Zm17.846-4.64-16.024 8.2 1.367 2.67 16.024-8.199-1.367-2.67ZM37.001 28.35l5.341-2.734 1.367 2.671-5.341 2.733L37 28.35Zm14.244-7.289-5.342 2.733 1.367 2.67 5.341-2.732-1.366-2.671ZM39.279 32.8l5.341-2.733 1.367 2.67-5.342 2.733-1.366-2.67Zm14.243-7.289-5.341 2.733 1.367 2.671 5.34-2.733-1.366-2.67Z"/></g></svg>